<svg width="220" height="40" viewBox="0 0 220 40" fill="none" xmlns="http://www.w3.org/2000/svg">
<mask id="path-1-inside-1_4209_8696" fill="white">
<path fill-rule="evenodd" clip-rule="evenodd" d="M20.0002 40L9.28613 29.2859L18.5725 19.9996L9.28683 10.714L20.0008 0H199.929L210.644 10.7147L201.359 19.9999L210.645 29.2861L199.931 40H20.0002Z"/>
</mask>
<path fill-rule="evenodd" clip-rule="evenodd" d="M20.0002 40L9.28613 29.2859L18.5725 19.9996L9.28683 10.714L20.0008 0H199.929L210.644 10.7147L201.359 19.9999L210.645 29.2861L199.931 40H20.0002Z" fill="url(#paint0_linear_4209_8696)"/>
<path d="M20.0002 40L17.8789 42.1213L18.7576 43H20.0002V40ZM9.28613 29.2859L7.16481 27.1646L5.04349 29.2859L7.16481 31.4072L9.28613 29.2859ZM18.5725 19.9996L20.6938 22.1209L22.8151 19.9996L20.6938 17.8783L18.5725 19.9996ZM9.28683 10.714L7.1655 8.59265L5.04418 10.714L7.1655 12.8353L9.28683 10.714ZM20.0008 0V-3H18.7582L17.8795 -2.12132L20.0008 0ZM199.929 0L202.05 -2.12132L201.172 -3H199.929V0ZM210.644 10.7147L212.765 12.836L214.887 10.7147L212.765 8.59336L210.644 10.7147ZM201.359 19.9999L199.237 17.8786L197.116 19.9999L199.237 22.1212L201.359 19.9999ZM210.645 29.2861L212.766 31.4074L214.887 29.2861L212.766 27.1647L210.645 29.2861ZM199.931 40V43H201.174L202.052 42.1213L199.931 40ZM22.1215 37.8787L11.4075 27.1646L7.16481 31.4072L17.8789 42.1213L22.1215 37.8787ZM11.4075 31.4072L20.6938 22.1209L16.4511 17.8783L7.16481 27.1646L11.4075 31.4072ZM20.6938 17.8783L11.4081 8.59265L7.1655 12.8353L16.4511 22.1209L20.6938 17.8783ZM11.4081 12.8353L22.1221 2.12132L17.8795 -2.12132L7.1655 8.59265L11.4081 12.8353ZM20.0008 3H199.929V-3H20.0008V3ZM197.808 2.12132L208.523 12.836L212.765 8.59336L202.05 -2.12132L197.808 2.12132ZM208.523 8.59336L199.237 17.8786L203.48 22.1212L212.765 12.836L208.523 8.59336ZM199.237 22.1212L208.524 31.4074L212.766 27.1647L203.48 17.8786L199.237 22.1212ZM208.524 27.1647L197.81 37.8787L202.052 42.1213L212.766 31.4074L208.524 27.1647ZM199.931 37H20.0002V43H199.931V37Z" fill="#F1CE89" mask="url(#path-1-inside-1_4209_8696)"/>
<rect x="212.785" y="14.9785" width="7.10153" height="7.10153" transform="rotate(45 212.785 14.9785)" fill="url(#paint1_linear_4209_8696)" stroke="#F1CE89" stroke-width="3"/>
<rect x="7.14258" y="14.9785" width="7.10153" height="7.10153" transform="rotate(45 7.14258 14.9785)" fill="url(#paint2_linear_4209_8696)" stroke="#F1CE89" stroke-width="3"/>
<defs>
<linearGradient id="paint0_linear_4209_8696" x1="122.41" y1="1.06937" x2="122.41" y2="38.8538" gradientUnits="userSpaceOnUse">
<stop stop-color="#6E1CAF"/>
<stop offset="1" stop-color="#361660"/>
</linearGradient>
<linearGradient id="paint1_linear_4209_8696" x1="218.46" y1="13.1272" x2="218.46" y2="22.6692" gradientUnits="userSpaceOnUse">
<stop stop-color="#6E1CAF"/>
<stop offset="1" stop-color="#361660"/>
</linearGradient>
<linearGradient id="paint2_linear_4209_8696" x1="12.8176" y1="13.1272" x2="12.8176" y2="22.6692" gradientUnits="userSpaceOnUse">
<stop stop-color="#6E1CAF"/>
<stop offset="1" stop-color="#361660"/>
</linearGradient>
</defs>
</svg>
